<svg id="Layer_1" data-name="Layer 1" xmlns="http://www.w3.org/2000/svg" viewBox="0 0 951.8 683.89">
	<defs>
		<style>
			.cls-1 {
			fill: none;
			stroke: #fff;
			stroke-miterlimit: 10;
			stroke-width: 45px;
			}
		</style>
	</defs>
	<title>youtube1</title>
	<path class="cls-1" d="M954.46,126.32a113.93,113.93,0,0,0-80.18-80.69C803.57,26.56,520,26.56,520,26.56s-283.57,0-354.28,19.07a113.92,113.92,0,0,0-80.17,80.69C66.6,197.5,66.6,346,66.6,346s0,148.49,19,219.68a113.9,113.9,0,0,0,80.17,80.69C236.43,665.44,520,665.44,520,665.44s283.57,0,354.28-19.07a114,114,0,0,0,80.18-80.69C973.39,494.5,973.39,346,973.39,346s0-148.5-18.93-219.68" transform="translate(-44.1 -4.06)"/>
	<path class="cls-1" d="M427.26,480.84,664.26,346l-237-134.83Z" transform="translate(-44.1 -4.06)"/>
</svg>
